<svg xmlns="http://www.w3.org/2000/svg" width="88" height="88" viewBox="0 0 88 88">
  <g id="Group_2" data-name="Group 2" transform="translate(-32)">
    <circle id="Oval" cx="44" cy="44" r="44" transform="translate(32)" fill="#3a3054"/>
    <path id="Combined_Shape" data-name="Combined Shape" d="M1.172,40a1.172,1.172,0,0,1,0-2.344h1.25V24.61a1.173,1.173,0,0,1,1.172-1.172H8.281A1.173,1.173,0,0,1,9.453,24.61V37.656H11.8V29.3a1.173,1.173,0,0,1,1.172-1.172h4.687A1.173,1.173,0,0,1,18.828,29.3v8.359h2.344V19.922a1.173,1.173,0,0,1,1.172-1.173h4.688A1.173,1.173,0,0,1,28.2,19.922V37.656h2.344V12.891a1.173,1.173,0,0,1,1.172-1.172h4.687a1.173,1.173,0,0,1,1.172,1.172V37.656h1.25a1.172,1.172,0,0,1,0,2.344ZM32.89,37.656h2.344V14.063H32.89Zm-9.375,0H25.86V21.094H23.515Zm-9.374,0h2.344V30.469H14.141Zm-9.375,0H7.109V25.781H4.766ZM11.8,19.922a3.381,3.381,0,0,1,.028-.433l-3.45-1.725a3.513,3.513,0,1,1,1.077-2.529,3.643,3.643,0,0,1-.027.434l3.449,1.724a3.507,3.507,0,0,1,3.953-.643l4.688-4.688a3.479,3.479,0,0,1-.344-1.515,3.514,3.514,0,0,1,5.463-2.926l4.073-3.055a3.519,3.519,0,1,1,1.408,1.875L28.042,9.5a3.515,3.515,0,0,1-4.87,4.223l-4.688,4.688a3.465,3.465,0,0,1,.344,1.515,3.515,3.515,0,1,1-7.031,0Zm2.344,0a1.172,1.172,0,1,0,1.172-1.172A1.173,1.173,0,0,0,14.141,19.922ZM4.766,15.234a1.172,1.172,0,1,0,1.172-1.172A1.173,1.173,0,0,0,4.766,15.234Zm18.75-4.687a1.172,1.172,0,1,0,1.173-1.172A1.173,1.173,0,0,0,23.515,10.547ZM32.89,3.515a1.172,1.172,0,1,0,1.172-1.172A1.173,1.173,0,0,0,32.89,3.515Z" transform="translate(56 24)" fill="#2bd0d0"/>
  </g>
</svg>
