<svg xmlns="http://www.w3.org/2000/svg" width="88" height="88" viewBox="0 0 88 88">
  <g id="Group_4" data-name="Group 4" transform="translate(-32)">
    <circle id="Oval" cx="44" cy="44" r="44" transform="translate(32)" fill="#3a3054"/>
    <path id="Shape" d="M19.7,44.863c-.07-.06-14.688-22.216-14.694-22.226s-.007-.023-.014-.032a.962.962,0,0,1-.116-.3.447.447,0,0,1-.015-.062.188.188,0,0,1-.01-.039l-.491-4.136L2.868,15.8.163,11.7a1,1,0,0,1-.106-.212.985.985,0,0,1,.6-1.256L4.481,8.885a.984.984,0,0,1,1.147.386l2.164,3.285,1.5,2.272,3.605,2.084c.013.007.015.014.035.027s.036.029.055.042a1,1,0,0,1,.212.214c.007.01.019.016.026.027l6.127,9.3V22.57a.955.955,0,0,1,.046-.284l1.839-5.514-3.753-7.5a.982.982,0,0,1,.094-1.03l5.9-7.867a.929.929,0,0,1,.139-.14,1.018,1.018,0,0,1,1.434.14l5.9,7.867a.982.982,0,0,1,.1,1.03l-3.752,7.5,1.838,5.514a.955.955,0,0,1,.046.284c0,.01.005.017.005.026v2.8l3.95-6.561.2-2.436a8.285,8.285,0,0,1,4.728-6.836L45.68,5.972a.976.976,0,0,1,1.4.851l.383,8.419a8.282,8.282,0,0,1-3.841,7.373l-2.065,1.307L28.473,45.62a4.887,4.887,0,0,1-3.028,2.235A4.969,4.969,0,0,1,24.254,48,4.869,4.869,0,0,1,19.7,44.863Z" transform="translate(53 20)" fill="#2bd0d0"/>
  </g>
</svg>
