<svg xmlns="http://www.w3.org/2000/svg" width="88" height="88" viewBox="0 0 88 88">
  <g id="Group_3" data-name="Group 3" transform="translate(-32)">
    <circle id="Oval" cx="44" cy="44" r="44" transform="translate(32)" fill="#3a3054"/>
    <path id="Combined_Shape" data-name="Combined Shape" d="M0,19.968A19.968,19.968,0,1,1,19.968,39.937,19.991,19.991,0,0,1,0,19.968ZM12.164,35.579a17.284,17.284,0,0,0,15.608,0,17.8,17.8,0,0,0-15.608,0Zm18.05-1.488a17.729,17.729,0,0,0,5.252-6.076,17.423,17.423,0,0,0,1.975-8.047H32.449v-2.5h4.793A17.34,17.34,0,0,0,32.564,7.89l-2.888,2.887L27.912,9.013l2.8-2.8A17.351,17.351,0,0,0,21.217,2.56V6.241h-2.5V2.56A17.349,17.349,0,0,0,9.229,6.215l2.8,2.8-1.765,1.765L7.374,7.89A17.334,17.334,0,0,0,2.7,17.473H7.488v2.5H2.5A17.417,17.417,0,0,0,4.47,28.015a17.737,17.737,0,0,0,5.252,6.076,20.235,20.235,0,0,1,20.491,0ZM14.976,24.961c0-2.144,3.169-12.13,3.8-14.11a1.3,1.3,0,0,1,2.377,0c.635,1.978,3.8,11.954,3.8,14.11a4.992,4.992,0,1,1-9.985,0Zm2.5,0a2.5,2.5,0,0,0,4.992,0c0-1.218-1.745-7.079-2.5-9.544C19.218,17.88,17.472,23.74,17.472,24.961Z" transform="translate(56 24)" fill="#2bd0d0"/>
  </g>
</svg>
